%TF.GenerationSoftware,KiCad,Pcbnew,10.0.3*%
%TF.CreationDate,2026-05-21T17:51:18+05:30*%
%TF.ProjectId,pathfinder,70617468-6669-46e6-9465-722e6b696361,rev?*%
%TF.SameCoordinates,Original*%
%TF.FileFunction,Copper,L2,Bot*%
%TF.FilePolarity,Positive*%
%FSLAX46Y46*%
G04 Gerber Fmt 4.6, Leading zero omitted, Abs format (unit mm)*
G04 Created by KiCad (PCBNEW 10.0.3) date 2026-05-21 17:51:18*
%MOMM*%
%LPD*%
G01*
G04 APERTURE LIST*
%TA.AperFunction,ComponentPad*%
%ADD10C,1.815000*%
%TD*%
%TA.AperFunction,ComponentPad*%
%ADD11R,1.815000X1.815000*%
%TD*%
%TA.AperFunction,ComponentPad*%
%ADD12C,1.400000*%
%TD*%
%TA.AperFunction,ComponentPad*%
%ADD13C,1.524000*%
%TD*%
%TA.AperFunction,ComponentPad*%
%ADD14C,2.200000*%
%TD*%
G04 APERTURE END LIST*
D10*
%TO.P,D1,A*%
%TO.N,Net-(D1-PadA)*%
X126000000Y-32000000D03*
D11*
%TO.P,D1,C*%
%TO.N,GND*%
X123460000Y-32000000D03*
%TD*%
D10*
%TO.P,D5,A*%
%TO.N,Net-(D5-PadA)*%
X101000000Y-57730000D03*
D11*
%TO.P,D5,C*%
%TO.N,GND*%
X101000000Y-60270000D03*
%TD*%
D12*
%TO.P,R5,1*%
%TO.N,Net-(D5-PadA)*%
X98460000Y-64100000D03*
%TO.P,R5,2*%
%TO.N,led5*%
X103540000Y-64100000D03*
%TD*%
D13*
%TO.P,U1,1,P26_A0_D0_1*%
%TO.N,b1*%
X162000000Y-49000000D03*
%TO.P,U1,2,P27_A1_D1_2*%
%TO.N,b2*%
X159460000Y-49000000D03*
%TO.P,U1,3,P28_A2_D2_3*%
%TO.N,b3*%
X156920000Y-49000000D03*
%TO.P,U1,4,P29_A3_D3_4*%
%TO.N,b4*%
X154380000Y-49000000D03*
%TO.P,U1,5,P6_SDA_D4_5*%
%TO.N,led1*%
X151840000Y-49000000D03*
%TO.P,U1,6,P7_SCL_D5_6*%
%TO.N,led2*%
X149300000Y-49000000D03*
%TO.P,U1,7,P0_D6_TX_7*%
%TO.N,led3*%
X146760000Y-49000000D03*
%TO.P,U1,8,P1_D7_RX_8*%
%TO.N,led4*%
X146760000Y-64240000D03*
%TO.P,U1,9,P2_D8_SCK_9*%
%TO.N,led5*%
X149300000Y-64240000D03*
%TO.P,U1,10,P4_D9_MISO_10*%
%TO.N,unconnected-(U1-P4_D9_MISO-Pad10)*%
X151840000Y-64240000D03*
%TO.P,U1,11,P3_D10_MOSI_11*%
%TO.N,unconnected-(U1-P3_D10_MOSI-Pad11)*%
X154380000Y-64240000D03*
%TO.P,U1,12,3V3_12*%
%TO.N,unconnected-(U1-3V3-Pad12)*%
X156920000Y-64240000D03*
%TO.P,U1,13,GND_13*%
%TO.N,GND*%
X159460000Y-64240000D03*
%TO.P,U1,14,VBUS_14*%
%TO.N,unconnected-(U1-VBUS-Pad14)*%
X162000000Y-64240000D03*
%TD*%
D10*
%TO.P,D2,A*%
%TO.N,Net-(D2-PadA)*%
X118270000Y-43000000D03*
D11*
%TO.P,D2,C*%
%TO.N,GND*%
X115730000Y-43000000D03*
%TD*%
D12*
%TO.P,R1,1*%
%TO.N,Net-(D1-PadA)*%
X119000000Y-36540000D03*
%TO.P,R1,2*%
%TO.N,led1*%
X119000000Y-31460000D03*
%TD*%
%TO.P,R4,1*%
%TO.N,Net-(D4-PadA)*%
X99000000Y-47900000D03*
%TO.P,R4,2*%
%TO.N,led4*%
X104080000Y-47900000D03*
%TD*%
D14*
%TO.P,SW1,1,1_1*%
%TO.N,b1*%
X159620000Y-31920000D03*
%TO.P,SW1,2,2_2*%
%TO.N,GND*%
X153270000Y-34460000D03*
%TD*%
D12*
%TO.P,R3,1*%
%TO.N,Net-(D3-PadA)*%
X121920000Y-46000000D03*
%TO.P,R3,2*%
%TO.N,led3*%
X127000000Y-46000000D03*
%TD*%
D10*
%TO.P,D4,A*%
%TO.N,Net-(D4-PadA)*%
X101000000Y-51460000D03*
D11*
%TO.P,D4,C*%
%TO.N,GND*%
X101000000Y-54000000D03*
%TD*%
D14*
%TO.P,SW4,1,1_1*%
%TO.N,b4*%
X117460000Y-51920000D03*
%TO.P,SW4,2,2_2*%
%TO.N,GND*%
X111110000Y-54460000D03*
%TD*%
%TO.P,SW2,1,1_1*%
%TO.N,b2*%
X140460000Y-31920000D03*
%TO.P,SW2,2,2_2*%
%TO.N,GND*%
X134110000Y-34460000D03*
%TD*%
%TO.P,SW3,1,1_1*%
%TO.N,b3*%
X136460000Y-51920000D03*
%TO.P,SW3,2,2_2*%
%TO.N,GND*%
X130110000Y-54460000D03*
%TD*%
D12*
%TO.P,R2,1*%
%TO.N,Net-(D2-PadA)*%
X114000000Y-38000000D03*
%TO.P,R2,2*%
%TO.N,led2*%
X114000000Y-32920000D03*
%TD*%
D10*
%TO.P,D3,A*%
%TO.N,Net-(D3-PadA)*%
X126000000Y-40000000D03*
D11*
%TO.P,D3,C*%
%TO.N,GND*%
X123460000Y-40000000D03*
%TD*%
M02*
