M48
; DRILL file KiCad 10.0.3 date 2026-05-21T17:54:46
; FORMAT={-:-/ absolute / metric / decimal}
; #@! TF.CreationDate,2026-05-21T17:54:46+05:30
; #@! TF.GenerationSoftware,Kicad,Pcbnew,10.0.3
; #@! TF.FileFunction,Plated,1,2,PTH
FMAT,2
METRIC
; #@! TA.AperFunction,Plated,PTH,ComponentDrill
T1C0.700
; #@! TA.AperFunction,Plated,PTH,ComponentDrill
T2C0.889
; #@! TA.AperFunction,Plated,PTH,ComponentDrill
T3C1.210
; #@! TA.AperFunction,Plated,PTH,ComponentDrill
T4C1.500
%
G90
G05
T1
X98.46Y-64.1
X99.0Y-47.9
X103.54Y-64.1
X104.08Y-47.9
X114.0Y-32.92
X114.0Y-38.0
X119.0Y-31.46
X119.0Y-36.54
X121.92Y-46.0
X127.0Y-46.0
T2
X146.76Y-49.0
X146.76Y-64.24
X149.3Y-49.0
X149.3Y-64.24
X151.84Y-49.0
X151.84Y-64.24
X154.38Y-49.0
X154.38Y-64.24
X156.92Y-49.0
X156.92Y-64.24
X159.46Y-49.0
X159.46Y-64.24
X162.0Y-49.0
X162.0Y-64.24
T3
X101.0Y-51.46
X101.0Y-54.0
X101.0Y-57.73
X101.0Y-60.27
X115.73Y-43.0
X118.27Y-43.0
X123.46Y-32.0
X123.46Y-40.0
X126.0Y-32.0
X126.0Y-40.0
T4
X111.11Y-54.46
X117.46Y-51.92
X130.11Y-54.46
X134.11Y-34.46
X136.46Y-51.92
X140.46Y-31.92
X153.27Y-34.46
X159.62Y-31.92
M30
